<?xml version="1.0" encoding="utf-8"?>
<!-- Generator: Adobe Illustrator 16.0.0, SVG Export Plug-In . SVG Version: 6.00 Build 0)  -->
<!DOCTYPE svg PUBLIC "-//W3C//DTD SVG 1.1//EN" "http://www.w3.org/Graphics/SVG/1.1/DTD/svg11.dtd">
<svg version="1.1" id="Layer_1" xmlns="http://www.w3.org/2000/svg" xmlns:xlink="http://www.w3.org/1999/xlink" x="0px" y="0px"
	 width="420px" height="320px" viewBox="0 0 420 320" enable-background="new 0 0 420 320" xml:space="preserve">
<g>
	
		<polygon fill="none" stroke="#000000" stroke-width="1.5" stroke-linecap="round" stroke-linejoin="round" stroke-miterlimit="10" points="
		140.556,264.836 185.274,288.756 216.994,251.316 182.675,219.597 	"/>
	
		<line fill="none" stroke="#000000" stroke-width="1.5" stroke-linecap="round" stroke-linejoin="round" stroke-miterlimit="10" x1="185.274" y1="288.756" x2="182.675" y2="219.597"/>
	
		<polyline fill="none" stroke="#000000" stroke-width="1.5" stroke-linecap="round" stroke-linejoin="round" stroke-miterlimit="10" points="
		214.135,209.457 189.696,232.335 215.689,251.547 	"/>
	
		<polyline fill="none" stroke="#000000" stroke-width="1.5" stroke-linecap="round" stroke-linejoin="round" stroke-miterlimit="10" points="
		367.205,237.146 345.172,201.135 375.852,175.139 	"/>
	
		<polyline fill="none" stroke="#000000" stroke-width="1.5" stroke-linecap="round" stroke-linejoin="round" stroke-miterlimit="10" points="
		108.317,164.518 156.027,221.415 140.556,264.836 81.149,254.176 108.448,164.087 76.079,214.461 81.149,254.176 	"/>
	
		<polyline fill="none" stroke="#000000" stroke-width="1.5" stroke-linecap="round" stroke-linejoin="round" stroke-miterlimit="10" points="
		140.556,264.836 132.042,201.526 81.149,254.176 156.027,221.415 76.079,214.461 124.828,194.896 156.027,221.415 	"/>
	
		<polygon fill="none" stroke="#000000" stroke-width="2" stroke-linecap="round" stroke-linejoin="round" stroke-miterlimit="10" points="
		39.2,158.627 7,156.288 7,106.759 49.423,120.408 	"/>
	
		<polyline fill="none" stroke="#000000" stroke-width="1.5" stroke-linecap="round" stroke-linejoin="round" stroke-miterlimit="10" points="
		8.221,106.759 94.409,55.28 91.289,100.91 80.759,151.607 62.82,172.277 39.811,158.627 50.34,136.398 80.759,151.607 	"/>
	
		<polyline fill="none" stroke="#000000" stroke-width="1.5" stroke-linecap="round" stroke-linejoin="round" stroke-miterlimit="10" points="
		11.743,104.657 35.78,61.261 8.221,156.288 50.34,120.408 91.289,100.91 	"/>
	
		<polyline fill="none" stroke="#000000" stroke-width="1.5" stroke-linecap="round" stroke-linejoin="round" stroke-miterlimit="10" points="
		16.216,108.774 51.315,97.399 8.221,156.288 	"/>
	
		<polyline fill="none" stroke="#000000" stroke-width="1.5" stroke-linecap="round" stroke-linejoin="round" stroke-miterlimit="10" points="
		35.78,61.261 91.703,94.854 51.315,97.399 35.78,61.261 97.139,58.66 162.267,31.102 208.87,82.189 218.035,110.854 183.911,81.02 
		144.327,108.774 91.703,99.35 111.178,130.938 	"/>
	
		<polyline fill="none" stroke="#000000" stroke-width="1.5" stroke-linecap="round" stroke-linejoin="round" stroke-miterlimit="10" points="
		21.352,111.015 56.58,114.754 94.178,58.66 	"/>
	
		<line fill="none" stroke="#000000" stroke-width="1.5" stroke-linecap="round" stroke-linejoin="round" stroke-miterlimit="10" x1="45.712" y1="84.366" x2="55.02" y2="117.483"/>
	
		<polyline fill="none" stroke="#000000" stroke-width="1.5" stroke-linecap="round" stroke-linejoin="round" stroke-miterlimit="10" points="
		56.58,114.754 91.703,94.854 131.653,103.249 	"/>
	
		<polyline fill="none" stroke="#000000" stroke-width="1.5" stroke-linecap="round" stroke-linejoin="round" stroke-miterlimit="10" points="
		50.34,120.408 81.28,149.101 57.765,117.483 111.178,130.938 62.82,172.277 50.34,136.398 	"/>
	
		<polygon fill="none" stroke="#000000" stroke-width="1.5" stroke-linecap="round" stroke-linejoin="round" stroke-miterlimit="10" points="
		131.653,103.249 162.267,31.102 144.327,108.774 98.74,57.984 97.139,58.66 	"/>
	
		<polyline fill="none" stroke="#000000" stroke-width="1.5" stroke-linecap="round" stroke-linejoin="round" stroke-miterlimit="10" points="
		97.139,58.66 113.128,123.334 106.693,126.844 80.759,151.607 39.811,158.627 	"/>
	
		<polyline fill="none" stroke="#000000" stroke-width="1.5" stroke-linecap="round" stroke-linejoin="round" stroke-miterlimit="10" points="
		91.703,99.35 116.053,126.063 91.289,200.355 62.82,172.277 143.547,160.577 85.52,152.872 	"/>
	
		<polyline fill="none" stroke="#000000" stroke-width="1.5" stroke-linecap="round" stroke-linejoin="round" stroke-miterlimit="10" points="
		109.188,165.558 134.058,144.88 76.079,214.461 145.431,159.698 	"/>
	
		<polygon fill="none" stroke="#000000" stroke-width="1.5" stroke-linecap="round" stroke-linejoin="round" stroke-miterlimit="10" points="
		134.058,144.88 151.087,167.068 167.856,188.917 132.042,201.526 	"/>
	
		<polyline fill="none" stroke="#000000" stroke-width="1.5" stroke-linecap="round" stroke-linejoin="round" stroke-miterlimit="10" points="
		116.053,126.063 131.653,103.249 167.856,97.399 162.267,31.102 154.979,99.48 	"/>
	
		<polyline fill="none" stroke="#000000" stroke-width="1.5" stroke-linecap="round" stroke-linejoin="round" stroke-miterlimit="10" points="
		113.128,123.139 144.327,108.774 113.459,133.844 	"/>
	
		<line fill="none" stroke="#000000" stroke-width="1.5" stroke-linecap="round" stroke-linejoin="round" stroke-miterlimit="10" x1="115.793" y1="126.844" x2="132.993" y2="146.16"/>
	
		<line fill="none" stroke="#000000" stroke-width="1.5" stroke-linecap="round" stroke-linejoin="round" stroke-miterlimit="10" x1="111.178" y1="130.938" x2="129.702" y2="148.502"/>
	
		<polygon fill="none" stroke="#000000" stroke-width="1.5" stroke-linecap="round" stroke-linejoin="round" stroke-miterlimit="10" points="
		156.027,221.415 134.013,146.16 124.828,194.896 151.087,167.068 175.526,159.603 159.344,177.826 	"/>
	
		<polyline fill="none" stroke="#000000" stroke-width="1.5" stroke-linecap="round" stroke-linejoin="round" stroke-miterlimit="10" points="
		137.874,149.853 141.956,139.721 151.087,167.068 194.246,189.826 158.229,176.373 124.828,194.896 167.856,188.917 
		156.027,221.415 189.696,232.335 140.556,264.836 216.994,251.316 252.093,240.655 214.135,209.457 215.764,250.179 	"/>
	
		<polyline fill="none" stroke="#000000" stroke-width="1.5" stroke-linecap="round" stroke-linejoin="round" stroke-miterlimit="10" points="
		132.042,201.526 182.741,219.661 214.135,209.457 	"/>
	
		<polygon fill="none" stroke="#000000" stroke-width="1.5" stroke-linecap="round" stroke-linejoin="round" stroke-miterlimit="10" points="
		189.696,232.335 222.325,185.731 232.375,224.448 189.696,232.335 167.856,188.917 214.135,209.457 194.246,189.826 	"/>
	
		<polyline fill="none" stroke="#000000" stroke-width="1.5" stroke-linecap="round" stroke-linejoin="round" stroke-miterlimit="10" points="
		255.067,240.055 265.418,217.516 214.135,209.457 222.325,185.731 167.856,188.917 263.078,202.277 276.533,235.715 
		341.271,259.896 367.205,237.146 412.248,217.125 375.852,175.139 368.647,236.505 364.396,203.212 331.911,178.906 
		304.569,195.002 313.358,205.113 318.208,158.596 	"/>
	
		<polyline fill="none" stroke="#000000" stroke-width="1.5" stroke-linecap="round" stroke-linejoin="round" stroke-miterlimit="10" points="
		226.429,185.957 241.044,171.303 232.375,224.448 254.729,190.541 	"/>
	
		<line fill="none" stroke="#000000" stroke-width="1.5" stroke-linecap="round" stroke-linejoin="round" stroke-miterlimit="10" x1="235.884" y1="176.477" x2="212.38" y2="185.731"/>
	
		<polyline fill="none" stroke="#000000" stroke-width="1.5" stroke-linecap="round" stroke-linejoin="round" stroke-miterlimit="10" points="
		231.507,223.734 263.078,202.277 241.044,171.303 311.112,204.257 276.533,235.715 296.552,264.836 341.271,259.896 
		311.112,204.257 296.552,264.836 252.093,240.655 	"/>
	
		<polyline fill="none" stroke="#000000" stroke-width="1.5" stroke-linecap="round" stroke-linejoin="round" stroke-miterlimit="10" points="
		269.21,217.516 311.112,204.257 341.271,215.761 367.205,237.146 	"/>
	
		<polyline fill="none" stroke="#000000" stroke-width="1.5" stroke-linecap="round" stroke-linejoin="round" stroke-miterlimit="10" points="
		194.246,189.826 269.21,181.104 255.517,191.647 	"/>
	
		<polygon fill="none" stroke="#000000" stroke-width="1.5" stroke-linecap="round" stroke-linejoin="round" stroke-miterlimit="10" points="
		412.248,217.125 341.893,186.376 353.945,165.647 	"/>
	
		<polygon fill="none" stroke="#000000" stroke-width="1.5" stroke-linecap="round" stroke-linejoin="round" stroke-miterlimit="10" points="
		378.319,174.228 280.823,151.218 339.126,116.119 	"/>
	
		<polyline fill="none" stroke="#000000" stroke-width="1.5" stroke-linecap="round" stroke-linejoin="round" stroke-miterlimit="10" points="
		375.852,175.139 341.271,259.896 299.225,198.666 280.823,151.218 353.945,165.647 339.126,116.119 301.165,155.232 	"/>
	
		<line fill="none" stroke="#000000" stroke-width="2" stroke-linecap="round" stroke-linejoin="round" stroke-miterlimit="10" x1="340" y1="216" x2="340" y2="260"/>
	
		<polyline fill="none" stroke="#000000" stroke-width="1.5" stroke-linecap="round" stroke-linejoin="round" stroke-miterlimit="10" points="
		341.271,259.896 320.212,172.277 331.911,178.906 378.319,174.228 	"/>
	
		<polyline fill="none" stroke="#000000" stroke-width="1.5" stroke-linecap="round" stroke-linejoin="round" stroke-miterlimit="10" points="
		235.884,63.901 259.958,102.079 247.674,118.138 234.804,63.08 	"/>
	
		<line fill="none" stroke="#000000" stroke-width="1.5" stroke-linecap="round" stroke-linejoin="round" stroke-miterlimit="10" x1="249.039" y1="124.113" x2="247.674" y2="118.138"/>
	
		<polyline fill="none" stroke="#000000" stroke-width="2" stroke-linecap="round" stroke-linejoin="round" stroke-miterlimit="10" points="
		220.045,108.646 258,102.079 258,81.02 270.337,110.316 221.442,112.73 	"/>
	
		<polyline fill="none" stroke="#000000" stroke-width="2" stroke-linecap="round" stroke-linejoin="round" stroke-miterlimit="10" points="
		259.317,81.795 281.152,105 324,105 	"/>
	
		<polyline fill="none" stroke="#000000" stroke-width="1.5" stroke-linecap="round" stroke-linejoin="round" stroke-miterlimit="10" points="
		179.139,84.366 162.267,31.102 183.911,81.02 208.87,82.189 200.116,135.424 153.919,117.483 	"/>
	
		<polyline fill="none" stroke="#000000" stroke-width="1.5" stroke-linecap="round" stroke-linejoin="round" stroke-miterlimit="10" points="
		118.431,129.807 153.297,117.483 153.919,102.049 	"/>
	
		<line fill="none" stroke="#000000" stroke-width="2" stroke-linecap="round" stroke-linejoin="round" stroke-miterlimit="10" x1="143" y1="110" x2="143" y2="141"/>
	
		<polyline fill="none" stroke="#000000" stroke-width="1.5" stroke-linecap="round" stroke-linejoin="round" stroke-miterlimit="10" points="
		145.431,108.646 159.731,144.88 148.586,156.288 	"/>
	
		<polyline fill="none" stroke="#000000" stroke-width="1.5" stroke-linecap="round" stroke-linejoin="round" stroke-miterlimit="10" points="
		180.09,85.572 159.731,144.88 182.936,114.754 183.911,81.02 	"/>
	
		<polyline fill="none" stroke="#000000" stroke-width="1.5" stroke-linecap="round" stroke-linejoin="round" stroke-miterlimit="10" points="
		153.297,117.483 183.167,106.759 208.87,82.189 	"/>
	
		<polyline fill="none" stroke="#000000" stroke-width="1.5" stroke-linecap="round" stroke-linejoin="round" stroke-miterlimit="10" points="
		167.856,97.399 183.167,106.759 218.035,110.854 258.398,81.02 252.093,110.854 	"/>
	
		<polyline fill="none" stroke="#000000" stroke-width="1.5" stroke-linecap="round" stroke-linejoin="round" stroke-miterlimit="10" points="
		156.027,221.415 194.246,189.826 175.526,159.603 141.956,139.721 161.973,189.735 175.526,159.603 250.014,161.747 
		200.116,135.424 182.936,114.754 250.014,161.747 	"/>
	
		<polyline fill="none" stroke="#000000" stroke-width="1.5" stroke-linecap="round" stroke-linejoin="round" stroke-miterlimit="10" points="
		200.116,135.424 218.035,110.854 182.936,114.754 171.821,157.408 159.731,144.88 200.116,135.424 183.911,81.02 153.297,117.483 
		144.327,108.774 	"/>
	
		<polyline fill="none" stroke="#000000" stroke-width="1.5" stroke-linecap="round" stroke-linejoin="round" stroke-miterlimit="10" points="
		271.025,110.316 324.111,104.225 345.172,155.508 320.212,172.277 	"/>
	
		<polyline fill="none" stroke="#000000" stroke-width="1.5" stroke-linecap="round" stroke-linejoin="round" stroke-miterlimit="10" points="
		259.958,102.079 304.027,130.938 322.552,78.583 249.039,124.113 218.035,110.854 234.804,63.08 258.398,81.02 322.552,78.583 
		335.774,118.138 	"/>
	
		<polyline fill="none" stroke="#000000" stroke-width="1.5" stroke-linecap="round" stroke-linejoin="round" stroke-miterlimit="10" points="
		218.035,110.854 250.014,161.747 271.943,109.928 289.153,152.862 290.917,129.807 	"/>
	
		<polyline fill="none" stroke="#000000" stroke-width="1.5" stroke-linecap="round" stroke-linejoin="round" stroke-miterlimit="10" points="
		280.823,104.419 303.698,130.901 230.346,116.119 	"/>
	
		<polyline fill="none" stroke="#000000" stroke-width="1.5" stroke-linecap="round" stroke-linejoin="round" stroke-miterlimit="10" points="
		241.044,171.303 267.021,151.997 280.823,151.218 249.868,161.942 	"/>
	
		<polyline fill="none" stroke="#000000" stroke-width="2" stroke-linecap="round" stroke-linejoin="round" stroke-miterlimit="10" points="
		247,175 280.53,175 249.868,162.135 324.039,104.418 303.698,131.035 248.454,124.181 249.676,162.168 	"/>
	
		<polyline fill="none" stroke="#000000" stroke-width="1.5" stroke-linecap="round" stroke-linejoin="round" stroke-miterlimit="10" points="
		289.153,152.862 303.698,130.987 345.172,155.508 336.745,123.188 	"/>
	
		<line fill="none" stroke="#000000" stroke-width="1.5" stroke-linecap="round" stroke-linejoin="round" stroke-miterlimit="10" x1="267.021" y1="151.997" x2="265.431" y2="181.544"/>
	
		<polyline fill="none" stroke="#000000" stroke-width="1.5" stroke-linecap="round" stroke-linejoin="round" stroke-miterlimit="10" points="
		324.039,104.321 315.337,146.16 280.53,174.616 264.633,206.142 	"/>
	
		<polyline fill="none" stroke="#000000" stroke-width="2" stroke-linecap="round" stroke-linejoin="round" stroke-miterlimit="10" points="
		280.53,174.616 276.439,235.715 320,172.277 320,142.638 265.416,217.516 276.493,235.715 252.091,240.655 254.925,187.52 
		222.416,185.731 	"/>
	
		<line fill="none" stroke="#000000" stroke-width="1.5" stroke-linecap="round" stroke-linejoin="round" stroke-miterlimit="10" x1="265.431" y1="184.013" x2="264.633" y2="202.121"/>
	
		<polyline fill="none" stroke="#000000" stroke-width="1.5" stroke-linecap="round" stroke-linejoin="round" stroke-miterlimit="10" points="
		290.917,130.054 305.978,181.544 315.337,146.16 	"/>
	
		<polyline fill="none" stroke="#000000" stroke-width="1.5" stroke-linecap="round" stroke-linejoin="round" stroke-miterlimit="10" points="
		263.078,202.277 299.225,198.666 267.021,151.997 269.21,181.104 280.823,151.218 320.212,172.277 339.126,116.119 	"/>
	
		<line fill="none" stroke="#000000" stroke-width="1.5" stroke-linecap="round" stroke-linejoin="round" stroke-miterlimit="10" x1="331.004" y1="121.009" x2="319.056" y2="110.854"/>
	
		<line fill="none" stroke="#000000" stroke-width="1.5" stroke-linecap="round" stroke-linejoin="round" stroke-miterlimit="10" x1="280.823" y1="151.218" x2="303.837" y2="174.228"/>
	
		<polyline fill="none" stroke="#000000" stroke-width="1.5" stroke-linecap="round" stroke-linejoin="round" stroke-miterlimit="10" points="
		269.21,181.104 320.212,172.277 364.693,175.139 	"/>
	
		<line fill="none" stroke="#000000" stroke-width="1.5" stroke-linecap="round" stroke-linejoin="round" stroke-miterlimit="10" x1="276.905" y1="181.808" x2="315.312" y2="186.376"/>
	
		<line fill="none" stroke="#000000" stroke-width="1.5" stroke-linecap="round" stroke-linejoin="round" stroke-miterlimit="10" x1="329.571" y1="177.582" x2="351.305" y2="167.852"/>
	
		<polyline fill="none" stroke="#000000" stroke-width="1.5" stroke-linecap="round" stroke-linejoin="round" stroke-miterlimit="10" points="
		353.945,165.647 345.172,201.135 412.248,217.125 	"/>
	
		<polyline fill="none" stroke="#000000" stroke-width="1.5" stroke-linecap="round" stroke-linejoin="round" stroke-miterlimit="10" points="
		363.465,205.496 341.271,215.761 319.224,186.376 345.172,201.135 331.911,178.906 341.271,215.761 320.212,172.277 
		305.978,181.544 294.335,178.065 	"/>
	
		<line fill="none" stroke="#000000" stroke-width="1.5" stroke-linecap="round" stroke-linejoin="round" stroke-miterlimit="10" x1="345.172" y1="201.135" x2="341.271" y2="215.761"/>
	
		<line fill="none" stroke="#000000" stroke-width="1.5" stroke-linecap="round" stroke-linejoin="round" stroke-miterlimit="10" x1="304.569" y1="195.002" x2="296.109" y2="188.853"/>
</g>
</svg>
